<svg id="a21cdb48-2293-4b3f-9b84-f65c5e53ffc6" data-name="Layer 1" xmlns="http://www.w3.org/2000/svg" viewBox="0 0 684.07 697.86"><path d="M359.94,157.83c6.42,0,12.77.32,19,.92,15.1-44.06,35-87.65,34.47-147.45-3.36-2.15-5.22-4.58-4.76-6.74.88-4.18,10.06-5.78,20.5-3.57s18.19,7.37,17.31,11.55c-.55,2.59-4.3,4.19-9.55,4.5-23.79,36.44-21.16,86.54-19.53,149.34a195.45,195.45,0,0,1,46.51,21.2c16.21-17.13,31.91-36.44,44-62.92-1.64-2.6-2.14-4.91-1.11-6.28,2-2.63,8.93-.74,15.51,4.23s10.3,11.13,8.32,13.76c-1.24,1.64-4.38,1.53-8.16,0-19.88,12.28-33,33.35-45.68,60a197.07,197.07,0,0,1,34.82,33.1c41.84-20.48,86.76-37.2,128.65-79.9-.86-3.89-.45-6.92,1.4-8.13,3.58-2.33,11.2,3,17,12s7.65,18.08,4.07,20.41c-2.22,1.45-6-.07-9.94-3.57-42.58,8.9-76.14,46.18-119.39,91.73a195.84,195.84,0,0,1,14.81,36.16c32.77-3,67-8.31,104.16-25.5.58-3.94,2-6.64,4.2-7.11,4.17-.91,9.4,6.8,11.68,17.22s.75,19.61-3.42,20.52c-2.59.57-5.59-2.19-8-6.85-32.13-5-65.14,6.51-103.36,24.05a197.57,197.57,0,0,1,2.88,33.11c23.14,4.62,47.84,7.65,76.71,3.82,1.33-2.77,3-4.43,4.72-4.28,3.29.28,5.38,7.17,4.67,15.38s-3.94,14.65-7.24,14.36c-2-.17-3.61-2.89-4.35-6.89-21-10.31-45.79-10.2-75.08-6.78a195.42,195.42,0,0,1-13.57,58.16c38,26.86,74.27,58.23,131.81,74.46,3-2.62,5.86-3.72,7.81-2.67,3.76,2,2.72,11.27-2.33,20.67s-12.18,15.39-15.94,13.37c-2.34-1.25-2.82-5.29-1.65-10.43-28.29-33.1-77.12-44.64-137.86-60.71a194.42,194.42,0,0,1-13,17.51c20.73,25.59,44.13,51.12,79.11,72.5,3.59-1.7,6.64-2,8.24-.46,3.07,3-.43,11.59-7.83,19.28s-15.9,11.52-19,8.56c-1.91-1.84-1.28-5.87,1.24-10.49-13.6-29.5-41.53-50.54-77.36-72.59A196.74,196.74,0,0,1,479.51,510c19.06,42.5,34.25,88,75.51,131.26,3.91-.72,6.93-.21,8.08,1.68,2.21,3.65-3.41,11.09-12.54,16.61s-18.32,7-20.53,3.37c-1.37-2.26.27-6,3.9-9.81-7.48-42.89-43.61-77.69-87.68-122.45A196,196,0,0,1,420.81,541c2.7,23.42,7.4,47.84,19.9,74.12,3.05.42,5.14,1.52,5.52,3.18.74,3.22-5.17,7.32-13.2,9.17s-15.15.74-15.89-2.47c-.46-2,1.64-4.33,5.23-6.26,3.37-23.11-4.34-46.7-16.58-73.51a196.35,196.35,0,0,1-36.91,5.15c-5,32.54-8.12,67-.41,107.29,3.69,1.51,6,3.57,5.89,5.78-.12,4.27-8.87,7.48-19.53,7.18s-19.22-4-19.1-8.28c.08-2.65,3.48-4.89,8.6-6.13,12.64-30,9.4-64.8,1.61-106.13a196.64,196.64,0,0,1-30.25-4.52c-20.68,41.72-46.1,82.34-53.28,141.7,3,2.56,4.58,5.21,3.84,7.3-1.41,4-10.72,4.42-20.79.88s-17.08-9.67-15.66-13.7c.88-2.5,4.8-3.6,10-3.22,28.35-33,32.24-83.06,38.77-145.53a198.5,198.5,0,0,1-23.11-12.46c-16.26,17.08-32,36.33-44.19,62.78,1.63,2.61,2.13,4.92,1.09,6.28-2,2.63-8.93.72-15.5-4.27s-10.27-11.16-8.27-13.78c1.23-1.63,4.38-1.51,8.15,0,20-12.17,33.14-33.17,45.9-59.81a197.78,197.78,0,0,1-32.56-30.59c-41.54,21.08-86.22,38.44-127.48,81.74.91,3.88.55,6.92-1.28,8.15-3.55,2.38-11.24-2.87-17.2-11.72s-7.9-18-4.36-20.35c2.2-1.48,6,0,10,3.43,42.48-9.54,75.51-47.31,118.1-93.48a197.66,197.66,0,0,1-9-18.52c-32.24,6.56-65.67,15.53-100.77,36.67-.15,4-1.3,6.82-3.4,7.52-4,1.36-10.08-5.73-13.48-15.85S58.33,439.38,62.38,438c2.51-.85,5.79,1.57,8.73,5.94,32.48,1.47,64.08-13.53,100.08-35.14-.89-3.07-1.7-6.18-2.44-9.31-23.57.76-48.3,3.43-75.53,13.72-.66,3-1.93,5-3.63,5.24-3.26.48-6.86-5.76-8-13.92s.51-15.15,3.77-15.62c2-.3,4.19,2,5.81,5.72,22.76,5.27,46.91-.47,74.65-10.46q-1-6.88-1.63-13.93c-46-7-92.47-18.92-151.22-7.73-1.52,3.69-3.58,6-5.79,5.88-4.27-.12-7.47-8.87-7.16-19.53s4-19.21,8.29-19.09c2.65.08,4.89,3.48,6.13,8.6,40.11,17,89,5.48,150.47-7.28a194.88,194.88,0,0,1,7.93-36.68c-28.78-16-60-30.9-100.43-37.65-2.7,2.92-5.42,4.33-7.47,3.51-4-1.6-3.94-10.92,0-20.81s10.44-16.63,14.4-15c2.46,1,3.38,5,2.77,10.19C105.81,256.89,139.58,266,181,273a198,198,0,0,1,22.41-37.51c-29.6-36-56.24-75.81-107.47-106.69-3.58,1.73-6.63,2-8.23.51-3-2.94.44-11.59,7.76-19.32s15.82-11.62,18.91-8.68c1.92,1.83,1.32,5.85-1.17,10.49,18.54,39.41,62.59,63.45,116.93,95a196.76,196.76,0,0,1,20.83-16c-8.92-21.84-20-44.1-39.16-66.06-3,.42-5.36-.07-6.18-1.57-1.58-2.9,3-8.45,10.25-12.39s14.39-4.8,16-1.9c1,1.79-.41,4.61-3.35,7.44,3,23.17,16.77,43.8,35.8,66.33a195.12,195.12,0,0,1,40.23-16.9c-2.91-32.78-8.07-67-25.14-104.26-3.93-.59-6.62-2.06-7.09-4.22-.9-4.17,6.83-9.37,17.26-11.62s19.62-.68,20.52,3.5c.55,2.59-2.21,5.57-6.89,8-5.15,32.11,6.29,65.16,23.69,103.45a197.21,197.21,0,0,1,33-2.77Z" transform="translate(0 0)" style="fill:#fff;fill-rule:evenodd"/><path d="M361,320.05A28.9,28.9,0,1,1,331.63,349,28.91,28.91,0,0,1,361,320.05Z" transform="translate(0 0)" style="fill:#75abde;fill-rule:evenodd"/><path d="M294.46,461.32c10.75,5.75,16,16.87,11.76,24.83s-16.43,9.74-27.19,4-16-16.87-11.76-24.83S283.7,455.57,294.46,461.32Z" transform="translate(0 0)" style="fill:#75abde;fill-rule:evenodd"/><path d="M434.53,436.76c6.25-9.1,16.77-12.73,23.5-8.11s7.13,15.75.89,24.85-16.77,12.72-23.51,8.1-7.12-15.74-.88-24.84Z" transform="translate(0 0)" style="fill:#75abde;fill-rule:evenodd"/><path d="M484.82,317c-1.82-8.52,1.82-16.51,8.12-17.86s12.88,4.47,14.7,13-1.81,16.51-8.12,17.86S486.64,325.54,484.82,317Z" transform="translate(0 0)" style="fill:#75abde;fill-rule:evenodd"/><path d="M298.8,239.38c-8.18,3-16.6.46-18.8-5.6s2.66-13.4,10.85-16.4,16.6-.46,18.8,5.6S307,236.38,298.8,239.38Z" transform="translate(0 0)" style="fill:#75abde;fill-rule:evenodd"/><path d="M266.26,328.21c-2.34,10.19-10.34,17-17.87,15.31S236.64,332.13,239,322s10.34-17,17.87-15.31,11.75,11.39,9.41,21.57Z" transform="translate(0 0)" style="fill:#75abde;fill-rule:evenodd"/><path d="M410.09,246.09c-9-3.22-14.37-11.24-12-17.9s11.61-9.45,20.62-6.23,14.37,11.24,12,17.9S419.1,249.31,410.09,246.09Z" transform="translate(0 0)" style="fill:#75abde;fill-rule:evenodd"/><path d="M493.6,250.07c-6.16-6.16-7.45-14.84-2.89-19.39s13.24-3.25,19.4,2.91S517.55,248.43,513,253s-13.24,3.25-19.39-2.91Z" transform="translate(0 0)" style="fill:#75abde;fill-rule:evenodd"/><path d="M213.73,274.14c-2.69,8.28-9.83,13.39-16,11.4s-8.92-10.31-6.24-18.59,9.82-13.39,15.95-11.41,8.93,10.31,6.25,18.6Z" transform="translate(0 0)" style="fill:#75abde;fill-rule:evenodd"/><path d="M381.27,512.94c8.41-2.27,16.58.93,18.26,7.15s-3.77,13.1-12.17,15.37-16.59-.93-18.27-7.15S372.87,515.21,381.27,512.94Z" transform="translate(0 0)" style="fill:#75abde;fill-rule:evenodd"/><path d="M525.13,401.48c1.38-8.59,7.66-14.73,14-13.71s10.4,8.82,9,17.41-7.66,14.74-14,13.72S523.73,410.08,525.13,401.48Z" transform="translate(0 0)" style="fill:#75abde;fill-rule:evenodd"/><path d="M358.08,191.2c-8.69-.45-15.47-6-15.14-12.47s7.65-11.28,16.34-10.84,15.48,6,15.15,12.47-7.65,11.28-16.35,10.84Z" transform="translate(0 0)" style="fill:#75abde;fill-rule:evenodd"/><path d="M228.51,412.91c4.9,7.2,4.56,16-.77,19.6s-13.61.73-18.51-6.47-4.56-16,.77-19.6S223.61,405.71,228.51,412.91Z" transform="translate(0 0)" style="fill:#75abde;fill-rule:evenodd"/></svg>