<svg id="e28e397e-e82a-4a25-810c-e1845afa08ec" data-name="b5191037-76fe-48e2-a0d6-21361e5ff574" xmlns="http://www.w3.org/2000/svg" viewBox="0 0 679 692.29"><path d="M359.75,165.4c6.18,0,12.3.31,18.3.88,14.55-42.44,33.72-84.43,33.21-142-3.24-2.07-5-4.41-4.59-6.49.85-4,9.7-5.57,19.75-3.44S444,21.41,443.1,25.43c-.53,2.5-4.14,4-9.2,4.34-22.92,35.1-20.39,83.37-18.82,143.87a188,188,0,0,1,44.81,20.42c15.62-16.5,30.74-35.11,42.39-60.62-1.58-2.5-2.06-4.73-1.07-6,1.92-2.53,8.6-.71,14.94,4.08s9.92,10.72,8,13.25c-1.19,1.58-4.21,1.48-7.86,0-19.15,11.83-31.79,32.13-44,57.81a190,190,0,0,1,33.54,31.88c40.31-19.73,83.58-35.83,123.94-77-.83-3.75-.44-6.67,1.35-7.83,3.44-2.25,10.79,2.89,16.37,11.56s7.37,17.42,3.92,19.66c-2.13,1.4-5.78-.07-9.57-3.44-41,8.58-73.35,44.49-115,88.37A188.25,188.25,0,0,1,541.1,300.6c31.57-2.89,64.55-8,100.34-24.57.56-3.8,1.93-6.4,4-6.85,4-.88,9.06,6.55,11.25,16.59s.72,18.89-3.29,19.77c-2.5.55-5.39-2.11-7.71-6.6-31-4.82-62.75,6.27-99.57,23.17A189.34,189.34,0,0,1,548.94,354c22.29,4.45,46.09,7.37,73.9,3.68,1.28-2.67,2.89-4.26,4.55-4.12,3.17.27,5.18,6.91,4.5,14.82s-3.8,14.11-7,13.83c-1.92-.16-3.48-2.78-4.19-6.64-20.23-9.93-44.11-9.82-72.33-6.53a188.3,188.3,0,0,1-13.07,56c36.61,25.88,71.55,56.1,127,71.73,2.89-2.52,5.65-3.58,7.52-2.57,3.63,1.93,2.62,10.86-2.24,19.91S655.85,529,652.22,527c-2.25-1.2-2.71-5.09-1.59-10-27.25-31.88-74.29-43-132.8-58.48a188.85,188.85,0,0,1-12.53,16.87c20,24.65,42.52,49.24,76.21,69.84,3.46-1.64,6.4-1.93,7.94-.44,3,2.89-.41,11.16-7.54,18.57s-15.32,11.1-18.31,8.25c-1.84-1.78-1.23-5.66,1.2-10.11-13.1-28.42-40-48.69-74.53-69.93a189.71,189.71,0,0,1-15.33,13.12c18.36,40.94,33,84.78,72.74,126.45,3.77-.69,6.68-.2,7.78,1.62,2.13,3.52-3.28,10.68-12.08,16s-17.64,6.74-19.77,3.25c-1.32-2.18.26-5.78,3.75-9.45-7.2-41.32-42-74.85-84.46-118a190.08,190.08,0,0,1-24.51,10c2.6,22.56,7.13,46.08,19.17,71.4,2.94.4,4.95,1.46,5.32,3.06.71,3.11-5,7-12.72,8.84s-14.59.71-15.31-2.38c-.44-1.93,1.58-4.17,5-6,3.25-22.27-4.18-45-16-70.82a188.8,188.8,0,0,1-35.56,5c-4.81,31.35-7.82,64.55-.39,103.36,3.55,1.45,5.78,3.44,5.67,5.57-.11,4.11-8.54,7.2-18.81,6.92s-18.52-3.86-18.4-8c.07-2.55,3.35-4.71,8.28-5.91,12.18-28.9,9.06-62.42,1.55-102.24a189.91,189.91,0,0,1-29.14-4.35c-19.92,40.19-44.41,79.32-51.33,136.51,2.89,2.46,4.42,5,3.7,7-1.36,3.85-10.32,4.26-20,.85S233,674,234.38,670.12c.85-2.41,4.62-3.47,9.63-3.1,27.31-31.79,31.06-80,37.35-140.2a193.06,193.06,0,0,1-22.26-12c-15.67,16.45-30.83,35-42.57,60.48,1.57,2.51,2.05,4.73,1.05,6-1.93,2.54-8.6.7-14.93-4.11s-9.9-10.75-8-13.27c1.18-1.57,4.22-1.46,7.85,0,19.27-11.73,31.93-32,44.22-57.62a190.37,190.37,0,0,1-31.37-29.47c-40,20.31-83.06,37-122.81,78.74.88,3.74.53,6.67-1.23,7.86-3.42,2.29-10.83-2.77-16.57-11.3s-7.61-17.34-4.2-19.6c2.12-1.43,5.78,0,9.63,3.3C121.13,526.68,153,490.3,194,445.82A188.08,188.08,0,0,1,185.31,428c-31.06,6.32-63.27,15-97.08,35.33-.15,3.85-1.25,6.57-3.28,7.24-3.85,1.31-9.71-5.52-13-15.27s-2.78-18.65,1.12-20c2.42-.82,5.58,1.51,8.41,5.72,31.29,1.42,61.74-13,96.42-33.85q-1.29-4.44-2.35-9c-22.71.73-46.53,3.31-72.77,13.22-.63,2.89-1.85,4.82-3.49,5.05-3.14.46-6.61-5.55-7.71-13.41s.49-14.6,3.63-15.05c1.93-.29,4,1.93,5.6,5.51,21.93,5.08,45.19-.45,71.91-10.08q-1-6.63-1.57-13.42c-44.31-6.74-89.08-18.22-145.67-7.44-1.47,3.55-3.45,5.78-5.58,5.66-4.12-.11-7.2-8.54-6.9-18.81s3.85-18.51,8-18.39c2.55.07,4.71,3.35,5.9,8.28,38.64,16.38,85.74,5.28,145-7A187.29,187.29,0,0,1,179.51,297c-27.73-15.41-57.8-29.76-96.75-36.27-2.6,2.82-5.22,4.17-7.2,3.38-3.85-1.54-3.79-10.52,0-20s10.06-16,13.87-14.45c2.37,1,3.26,4.81,2.67,9.81,22.83,21.43,55.37,30.2,95.27,37A190.37,190.37,0,0,1,209,240.21c-28.52-34.68-54.18-73-103.54-102.78-3.44,1.67-6.38,1.93-7.92.49-2.89-2.83.42-11.16,7.47-18.61s15.24-11.19,18.22-8.36c1.85,1.76,1.27,5.64-1.13,10.11,17.86,38,60.3,61.12,112.65,91.51a189.61,189.61,0,0,1,20.06-15.41c-8.59-21-19.26-42.48-37.72-63.64-2.89.41-5.17-.07-6-1.51-1.52-2.8,2.89-8.14,9.88-11.94s13.86-4.62,15.41-1.83c1,1.73-.39,4.44-3.22,7.17,2.89,22.32,16.15,42.19,34.48,63.9A187.84,187.84,0,0,1,306.4,173c-2.8-31.58-7.78-64.55-24.22-100.44-3.79-.57-6.38-2-6.83-4.07-.87-4,6.58-9,16.63-11.19s18.9-.66,19.77,3.37c.53,2.5-2.13,5.37-6.64,7.71-5,30.93,6.06,62.77,22.82,99.66a190.25,190.25,0,0,1,31.79-2.67Z" transform="translate(-3 -3.35)" style="fill:#75abde;stroke:#75abde;stroke-miterlimit:10;stroke-width:20px;fill-rule:evenodd"/><path d="M360.77,321.67a28.05,28.05,0,1,1-.48,0Z" transform="translate(-3 -3.35)" style="fill:#fff;fill-rule:evenodd"/><path d="M296.67,457.77C307,463.31,312.08,474,308,481.69s-15.83,9.38-26.2,3.85-15.41-16.25-11.32-23.92S286.3,452.23,296.67,457.77Z" transform="translate(-3 -3.35)" style="fill:#fff;fill-rule:evenodd"/><path d="M431.61,434.11c6-8.77,16.15-12.27,22.63-7.82s6.87,15.18.86,23.94S439,462.49,432.45,458s-6.86-15.17-.84-23.93Z" transform="translate(-3 -3.35)" style="fill:#fff;fill-rule:evenodd"/><path d="M480.05,318.74c-1.75-8.21,1.76-15.91,7.83-17.21s12.4,4.31,14.16,12.52-1.75,15.91-7.83,17.21S481.81,327,480.05,318.74Z" transform="translate(-3 -3.35)" style="fill:#fff;fill-rule:evenodd"/><path d="M300.85,244c-7.88,2.89-16,.44-18.11-5.4s2.56-12.9,10.45-15.79,16-.45,18.11,5.39S308.75,241.07,300.85,244Z" transform="translate(-3 -3.35)" style="fill:#fff;fill-rule:evenodd"/><path d="M269.5,329.53c-2.25,9.82-10,16.38-17.21,14.75s-11.32-11-9-20.73,10-16.38,17.22-14.75,11.32,11,9.06,20.78Z" transform="translate(-3 -3.35)" style="fill:#fff;fill-rule:evenodd"/><path d="M408.06,250.42c-8.67-3.1-13.84-10.82-11.56-17.24s11.19-9.1,19.87-6,13.84,10.83,11.56,17.24S416.74,253.53,408.06,250.42Z" transform="translate(-3 -3.35)" style="fill:#fff;fill-rule:evenodd"/><path d="M488.51,254.26c-5.93-5.94-7.18-14.3-2.78-18.68s12.75-3.13,18.69,2.8,7.16,14.3,2.78,18.7-12.75,3.13-18.68-2.8Z" transform="translate(-3 -3.35)" style="fill:#fff;fill-rule:evenodd"/><path d="M218.9,277.45c-2.59,8-9.47,12.9-15.42,11s-8.59-9.93-6-17.91,9.46-12.9,15.37-11,8.6,9.93,6,17.92Z" transform="translate(-3 -3.35)" style="fill:#fff;fill-rule:evenodd"/><path d="M380.3,507.49c8.1-2.18,16,.9,17.59,6.89s-3.63,12.62-11.73,14.81-16-.9-17.6-6.89S372.21,509.68,380.3,507.49Z" transform="translate(-3 -3.35)" style="fill:#fff;fill-rule:evenodd"/><path d="M518.89,400.12c1.33-8.28,7.38-14.19,13.48-13.21s10,8.5,8.67,16.77-7.38,14.2-13.48,13.22S517.54,408.4,518.89,400.12Z" transform="translate(-3 -3.35)" style="fill:#fff;fill-rule:evenodd"/><path d="M358,197.55c-8.37-.44-14.91-5.78-14.59-12s7.37-10.86,15.74-10.44,14.92,5.78,14.6,12S366.34,198,358,197.55Z" transform="translate(-3 -3.35)" style="fill:#fff;fill-rule:evenodd"/><path d="M233.14,411.13c4.72,6.94,4.39,15.41-.75,18.88s-13.11.71-17.83-6.23-4.39-15.41.74-18.88S228.42,404.19,233.14,411.13Z" transform="translate(-3 -3.35)" style="fill:#fff;fill-rule:evenodd"/></svg>