<svg id="Layer_1" data-name="Layer 1" xmlns="http://www.w3.org/2000/svg" viewBox="0 0 1860.18 943.62"><defs><style>.cls-1{fill:#fff;}.cls-2{fill:#75abde;}</style></defs><path class="cls-1" d="M621.3,658.63c-22.62-80.88-11.15-157,32.29-214.21,25.47-33.57,60-58.42,99.65-72.74a19.22,19.22,0,0,0,12.56-15.42c.05-.33.09-.66.14-1a19.5,19.5,0,0,0-26-21.17,263.12,263.12,0,0,0-25.19,10.52,256.84,256.84,0,0,0-93.08,75.64c-51.18,67.45-65,155.93-39,249.15,15.34,54.85,40.28,104.94,74.12,148.88,33,42.85,74.72,80.21,124,111a598.93,598.93,0,0,0,100.25,49.82c18.07,7,34.19-13.57,23-29.42-.14-.2-.28-.39-.41-.59a19.77,19.77,0,0,0-9-7.08C752.58,886.8,658.09,790.23,621.3,658.63Z" transform="translate(-569.91 -256.19)"/><path class="cls-1" d="M2378.7,658.63c22.62-80.88,11.15-157-32.29-214.21-25.47-33.57-60-58.42-99.65-72.74a19.22,19.22,0,0,1-12.56-15.42c0-.33-.09-.66-.14-1a19.5,19.5,0,0,1,26-21.17,263.12,263.12,0,0,1,25.19,10.52,256.84,256.84,0,0,1,93.08,75.64c51.18,67.45,65,155.93,38.95,249.15-15.34,54.85-40.28,104.94-74.12,148.88-33,42.85-74.72,80.21-124,111a598.93,598.93,0,0,1-100.25,49.82c-18.07,7-34.19-13.57-23-29.42.14-.2.28-.39.41-.59a19.77,19.77,0,0,1,9-7.08C2247.42,886.8,2341.91,790.23,2378.7,658.63Z" transform="translate(-569.91 -256.19)"/><path class="cls-1" d="M1463.52,261c-209.79,55.78-383.78,52.13-575.28,29.85-53-6.17-99.29,36.2-97.48,89.59,17.76,524.12,180.1,707.41,568.34,802.42a592.83,592.83,0,0,0,281.8,0c388.24-95,550.58-278.3,568.34-802.42,1.81-53.39-44.43-95.76-97.48-89.59-191.5,22.28-365.49,25.93-575.28-29.85A141.88,141.88,0,0,0,1463.52,261Z" transform="translate(-569.91 -256.19)"/><path class="cls-2" d="M2097.91,372.87c-71,7.72-144.1,13.14-217.67,13.14-113.66,0-220.15-12.49-329.85-39a214.86,214.86,0,0,0-100.78,0c-109.7,26.49-216.19,39-329.85,39-73.57,0-146.7-5.42-217.67-13.14a27.51,27.51,0,0,0-30.46,28.57c4,93,13,173.05,27,242.47,19.11,94.79,47.79,170.32,87.66,230.9,73.91,112.3,191.11,181.18,391.9,230.31a512.79,512.79,0,0,0,243.72,0c200.79-49.13,318-118,391.9-230.31,39.87-60.58,68.55-136.11,87.66-230.9,14-69.42,22.91-149.44,26.95-242.47A27.52,27.52,0,0,0,2097.91,372.87Z" transform="translate(-569.91 -256.19)"/><path class="cls-1" d="M1587.29,520.82a1424.15,1424.15,0,0,0,225.82,27.6,35,35,0,0,0,36.46-35h0a35,35,0,0,0-33.47-35,1364.29,1364.29,0,0,1-227.66-28.94,424.16,424.16,0,0,0-176.88,0,1364.29,1364.29,0,0,1-227.66,28.94,35,35,0,0,0-33.47,35h0a35,35,0,0,0,36.46,35,1424.15,1424.15,0,0,0,225.82-27.6A436.72,436.72,0,0,1,1587.29,520.82Z" transform="translate(-569.91 -256.19)"/><path class="cls-1" d="M1707,767.62H1293a35,35,0,0,1-35-35h0a35,35,0,0,1,35-35h414a35,35,0,0,1,35,35h0A35,35,0,0,1,1707,767.62Z" transform="translate(-569.91 -256.19)"/><path class="cls-1" d="M1715.82,981.59q-215.82,51-431.64,0A34,34,0,0,1,1258,948.51h0a34,34,0,0,1,41.48-33.13q200.52,45.38,401,0A34,34,0,0,1,1742,948.51h0A34,34,0,0,1,1715.82,981.59Z" transform="translate(-569.91 -256.19)"/></svg>